# AST/ASF file generated using VICON BodyLanguage
# -----------------------------------------------
:version 1.10
:name VICON
:units
  mass 1.0
  length 0.45
  angle deg
:documentation
   .ast/.asf automatically generated from VICON data using
   VICON BodyBuilder and BodyLanguage model FoxedUp or BRILLIANT.MOD
:root
   order TX TY TZ RX RY RZ
   axis XYZ
   position 0 0 0  
   orientation 0 0 0 
:bonedata
  begin
     id 1 
     name lhipjoint
     direction 0.78388 -0.462562 0.414208 
     length 3.01181 
     axis 0 0 0  XYZ
  end
  begin
     id 2 
     name lfemur
     direction 0.34202 -0.939693 0  
     length 6.04673  
     axis 0 0 20  XYZ
    dof rx ry rz
    limits (-160.0 20.0)
           (-70.0 70.0)
           (-60.0 70.0)
  end
  begin
     id 3 
     name ltibia
     direction 0.34202 -0.939693 0   
     length 7.211   
     axis 0 0 20   XYZ
    dof rx
    limits (-10.0 170.0)
  end
  begin
     id 4 
     name lfoot
     direction 0.121887 -0.334882 0.934344   
     length 2.13567   
     axis -90 7.62852e-016 20   XYZ
    dof rx rz
    limits (-45.0 90.0)
           (-70.0 20.0)
  end
  begin
     id 5 
     name ltoes
     direction 1.53555e-011 -4.2179e-011 1   
     length 1.05957   
     axis -90 7.62852e-016 20   XYZ
    dof rx
    limits (-90.0 20.0)
  end
  begin
     id 6 
     name rhipjoint
     direction -0.769387 -0.475875 0.426129   
     length 2.92756  
     axis 0 0 0  XYZ 
  end
  begin
     id 7 
     name rfemur
     direction -0.34202 -0.939693 0   
     length 6.35468   
     axis 0 0 -20   XYZ
    dof rx ry rz
    limits (-160.0 20.0)
           (-70.0 70.0)
           (-70.0 60.0)
  end
  begin
     id 8 
     name rtibia
     direction -0.34202 -0.939693 0   
     length 7.37886   
     axis 0 0 -20   XYZ
    dof rx
    limits (-10.0 170.0)
 end
 begin
     id 9 
     name rfoot
     direction -0.101763 -0.279592 0.954711   
     length 2.21478  
     axis -90 -7.62852e-016 -20   XYZ
    dof rx rz
    limits (-45.0 90.0)
           (-20.0 70.0)
  end
  begin
     id 10 
     name rtoes
     direction -1.53494e-011 -4.21851e-011 1   
     length 1.10506   
     axis -90 -7.62852e-016 -20   XYZ
    dof rx
    limits (-90.0 20.0)
  end
  begin
     id 11 
     name lowerback
     direction 0.00747405 0.999267 0.0375481   
     length 2.13259   
     axis 0 0 0   XYZ
    dof rx ry rz
    limits (-20.0 45.0)
           (-30.0 30.0)
           (-30.0 30.0)
  end
  begin
     id 12 
     name upperback
     direction 0.00661626 0.996177 0.0871029   
     length 2.10528   
     axis 0 0 0   XYZ
    dof rx ry rz
    limits (-20.0 45.0)
           (-30.0 30.0)
           (-30.0 30.0)
  end
  begin
     id 13 
     name thorax
     direction 0.00320659 0.997679 0.0680167   
     length 2.11338   
     axis 0 0 0   XYZ
    dof rx ry rz
    limits (-20.0 45.0)
           (-30.0 30.0)
           (-30.0 30.0)
  end
  begin
     id 14 
     name lowerneck
     direction 0.0374841 0.973033 0.227602   
     length 1.42765   
     axis 0 0 0   XYZ
    dof rx ry rz
    limits (-20.0 45.0)
           (-30.0 30.0)
           (-30.0 30.0)
  end
  begin
     id 15 
     name upperneck
     direction 0.00481585 0.989155 -0.146795   
     length 1.47593   
     axis 0 0 0   XYZ
    dof rx ry rz
    limits (-20.0 45.0)
           (-30.0 30.0)
           (-30.0 30.0)
  end
  begin
     id 16
     name head
     direction -0.00292522 0.997206 -0.0746423  
     length 1.48116  
     axis 0 0 0   XYZ
    dof rx ry rz
    limits (-20.0 45.0)
           (-30.0 30.0)
           (-30.0 30.0)
  end
  begin
     id 17 
     name lclavicle
     direction 0.951444 0.305606 0.0368784  
     length 3.01855  
     axis 0 0 0   XYZ
    dof ry rz
    limits (-20.0 10.0)
           (0.0 20.0)
  end
  begin
     id 18 
     name lhumerus
     direction 1 -4.48977e-011 2.61664e-027   
     length 5.52731   
     axis 180 -30 -90   XYZ
    dof rx ry rz
    limits (-60.0 90.0)
           (-90.0 90.0)
           (-90.0 90.0)
  end
  begin
     id 19
     name lradius
     direction 1 -4.48944e-011 8.22157e-027   
     length 3.11059   
     axis 180 -30 -90   XYZ
    dof rx
    limits (-10.0 170.0)
  end
  begin
     id 20
     name lwrist
     direction 1 -4.48976e-011 1.5779e-026   
     length 1.5553   
     axis -1.15221e-014 90 90   XYZ
    dof ry
    limits (-180.0 0.0)
 end
  begin
     id 21 
     name lhand
     direction 1 -4.49025e-011 3.1558e-026   
     length 0.419626   
     axis -2.01367e-014 90 90   XYZ
    dof rx rz
    limits (-90.0 90.0)
           (-45.0 45.0)
  end
  begin
     id 22 
     name lfingers
     direction 1 -4.4904e-011 6.31161e-026   
     length 0.338313   
     axis -4.02734e-014 90 90   XYZ
    dof rx
    limits (0.0 90.0)
  end
  begin
     id 23
     name lthumb
     direction 0.707107 -6.35004e-011 0.707107   
     length 0.485752   
     axis -90 45 2.85299e-015   XYZ
    dof rx rz
    limits (-45.0 45.0)
           (-45.0 45.0)
  end
  begin
     id 24 
     name rclavicle
     direction -0.968876 0.223791 0.105816   
     length 3.04177  
     axis 0 0 0   XYZ 
    dof ry rz
    limits (-10.0 20.0)
           (-20.0 0.0)
  end
  begin
     id 25 
     name rhumerus
     direction -1 -4.48962e-011 -1.01384e-027  
     length 5.25396   
     axis 180 30 90   XYZ
    dof rx ry rz
    limits (-90.0 60.0)
           (-90.0 90.0)
           (-90.0 90.0)
  end
  begin
     id 26 
     name rradius
     direction -1 -4.48955e-011 8.88542e-027   
     length 3.10567   
     axis 180 30 90   XYZ
    dof rx
    limits (-10.0 170.0)
  end
  begin
     id 27 
     name rwrist
     direction -1 -4.48994e-011 1.5779e-026   
     length 1.55283   
     axis -1.15221e-014 -90 -90   XYZ
    dof ry
    limits (-180.0 0.0)
  end
  begin
     id 28
     name rhand
     direction -1 -4.48891e-011 3.1558e-026   
     length 0.498676   
     axis -2.01367e-014 -90 -90   XYZ
    dof rx rz
    limits (-90.0 90.0)
           (-45.0 45.0)
  end
  begin
     id 29
     name rfingers
     direction -1 -4.48972e-011 6.31161e-026   
     length 0.402045   
     axis -4.02734e-014 -90 -90   XYZ
    dof rx
    limits (0.0 90.0)
  end
  begin
     id 30
     name rthumb
     direction -0.707107 -6.34849e-011 0.707107   
     length 0.577259   
     axis -90 -45 -2.85299e-015   XYZ
    dof rx rz
    limits (-45.0 45.0)
           (-45.0 45.0)
  end
:hierarchy
  begin
    root lhipjoint rhipjoint lowerback
    lhipjoint lfemur
    lfemur ltibia
    ltibia lfoot
    lfoot ltoes
    rhipjoint rfemur
    rfemur rtibia
    rtibia rfoot
    rfoot rtoes
    lowerback upperback
    upperback thorax
    thorax lowerneck lclavicle rclavicle
    lowerneck upperneck
    upperneck head
    lclavicle lhumerus
    lhumerus lradius
    lradius lwrist
    lwrist lhand lthumb
    lhand lfingers
    rclavicle rhumerus
    rhumerus rradius
    rradius rwrist
    rwrist rhand rthumb
    rhand rfingers
  end

#!OML:ASF H:\Pregnant\Project 1\Capture day 1\Session 1\femalepreg.ASF
:FULLY-SPECIFIED
:DEGREES
81
root 3.64558 9.77683 7.12483 45.4512 -5.96019 13.2375
lowerback -2.86495 -2.07766 -6.17969
upperback -8.10122 -3.13732 -4.18969
thorax -6.8057 -1.34159 -0.85196
lowerneck -49.9739 -1.38901 1.02761
upperneck 1.25092 -2.91781 3.42917
head 6.99271 -0.927073 0.639214
rclavicle -4.02042e-014 -4.65156e-014
rhumerus -31.0934 25.1761 -97.1809
rradius 99.5683
rwrist -28.3983
rhand -7.77631 -28.1652
rfingers 7.12502
rthumb 18.1241 -57.3408
lclavicle -4.02042e-014 -4.65156e-014
lhumerus -35.5374 -18.7476 89.5697
lradius 102.358
lwrist 61.3564
lhand -44.4834 14.7118
lfingers 7.12502
lthumb -17.2865 43.963
rfemur -150.014 -28.0046 28.3469
rtibia 101.229
rfoot -0.859952 9.87446
rtoes -6.02449
lfemur -130.681 8.155 -42.5668
ltibia 88.1624
lfoot -0.67331 -12.4806
ltoes -12.2368
82
root 3.6353 9.75581 7.1448 46.2346 -4.84998 11.3327
lowerback -2.70057 -1.9321 -3.92498
upperback -8.20919 -2.89282 -3.47601
thorax -7.06283 -1.33325 -1.34925
lowerneck -50.7649 -1.12559 1.20228
upperneck 1.06648 -2.68038 3.26092
head 6.97555 -0.833746 0.594936
rclavicle -8.89561e-015 3.83654e-014
rhumerus -31.3668 25.1594 -97.1815
rradius 99.9733
rwrist -28.3254
rhand -7.75355 -28.4532
rfingers 7.12502
rthumb 18.146 -57.6268
lclavicle -8.89561e-015 3.83654e-014
lhumerus -35.7371 -18.8675 89.5334
lradius 102.621
lwrist 61.3274
lhand -44.445 14.7299
lfingers 7.12502
lthumb -17.2495 43.9844
rfemur -150.181 -27.0228 30.5508
rtibia 101.575
rfoot -1.4287 9.46085
rtoes -6.17443
lfemur -132.526 8.68384 -40.3864
ltibia 88.9236
lfoot -0.349196 -12.5601
ltoes -12.6904
83
root 3.62439 9.73719 7.16552 46.8968 -3.59872 9.43375
lowerback -2.39597 -1.80223 -1.60447
upperback -8.28391 -2.65455 -2.73282
thorax -7.37015 -1.3368 -1.85768
lowerneck -51.5366 -0.852768 1.38201
upperneck 0.888563 -2.43737 3.08043
head 6.95737 -0.740507 0.546114
rclavicle 4.22417e-015 -1.8487e-014
rhumerus -31.6165 25.1565 -97.1494
rradius 100.386
rwrist -28.279
rhand -7.80858 -28.6036
rfingers 7.12502
rthumb 18.093 -57.7821
lclavicle 4.22417e-015 -1.8487e-014
lhumerus -35.9069 -18.9849 89.5013
lradius 102.88
lwrist 61.2765
lhand -44.3852 14.7668
lfingers 7.12502
lthumb -17.192 44.0263
rfemur -150.175 -26.126 32.7943
rtibia 101.914
rfoot -2.0603 9.04313
rtoes -6.29916
lfemur -134.216 9.24048 -38.1408
ltibia 89.5856
lfoot 0.024207 -12.6879
ltoes -13.1234
84
root 3.61329 9.72053 7.18729 47.4533 -2.23788 7.56899
lowerback -1.97993 -1.69842 0.749453
upperback -8.33024 -2.42596 -1.97235
thorax -7.71845 -1.35317 -2.37001
lowerneck -52.8784 -0.492941 1.68338
upperneck 1.40136 -2.17222 2.74964
head 6.84362 -0.642993 0.482604
rclavicle -6.06293e-015 -2.28602e-014
rhumerus -31.8402 25.1715 -97.0896
rradius 100.804
rwrist -28.2612
rhand -7.95598 -28.6086
rfingers 7.12502
rthumb 17.9512 -57.8002
lclavicle -6.06293e-015 -2.28602e-014
lhumerus -36.0479 -19.0929 89.4713
lradius 103.136
lwrist 61.1989
lhand -44.2743 14.7762
lfingers 7.12502
lthumb -17.0852 44.0449
rfemur -150.042 -25.3233 35.0657
rtibia 102.233
rfoot -2.73821 8.63553
rtoes -6.3842
lfemur -135.76 9.80389 -35.8851
ltibia 90.1367
lfoot 0.446631 -12.8716
ltoes -13.5131
85
root 3.60235 9.70589 7.21033 47.917 -0.80178 5.76704
lowerback -1.47318 -1.62714 3.10086
upperback -8.35266 -2.20907 -1.21076
thorax -8.10213 -1.38206 -2.87984
lowerneck -53.6155 -0.202326 1.8588
upperneck 1.25929 -1.91751 2.57054
head 6.82228 -0.546606 0.43583
rclavicle 1.11319e-014 2.26615e-014
rhumerus -32.0379 25.2007 -97.0068
rradius 101.229
rwrist -28.2686
rhand -8.15312 -28.5513
rfingers 7.12502
rthumb 17.7615 -57.7601
lclavicle 1.11319e-014 2.26615e-014
lhumerus -36.1569 -19.1949 89.4378
lradius 103.389
lwrist 61.1028
lhand -44.1097 14.7683
lfingers 7.12502
lthumb -16.9268 44.0506
rfemur -149.818 -24.6207 37.3444
rtibia 102.522
rfoot -3.44681 8.24956
rtoes -6.43646
lfemur -137.158 10.3543 -33.6662
ltibia 90.5697
lfoot 0.909238 -13.1085
ltoes -13.8476
86
root 3.59222 9.69296 7.23711 48.3937 0.554813 4.17604
lowerback -0.992877 -1.59216 5.24758
upperback -8.38351 -2.01987 -0.505473
thorax -8.48274 -1.41949 -3.3324
lowerneck -54.3185 0.0938158 2.03076
upperneck 1.13215 -1.65829 2.39185
head 6.80358 -0.449046 0.38993
rclavicle 1.22253e-014 3.57812e-015
rhumerus -32.2078 25.255 -96.9003
rradius 101.66
rwrist -28.2967
rhand -8.38668 -28.4726
rfingers 7.12502
rthumb 17.5367 -57.7017
lclavicle 1.22253e-014 3.57812e-015
lhumerus -36.2368 -19.2902 89.4014
lradius 103.648
lwrist 61.0024
lhand -43.9153 14.6977
lfingers 7.12502
lthumb -16.7396 43.996
rfemur -149.684 -24.0149 39.4934
rtibia 102.764
rfoot -4.12086 7.92619
rtoes -6.45439
lfemur -138.448 10.8239 -31.707
ltibia 90.8821
lfoot 1.34974 -13.3702
ltoes -14.1272
87
root 3.58296 9.68112 7.26917 48.9838 1.69681 2.88846
lowerback -0.640678 -1.57704 7.03094
upperback -8.45226 -1.8599 0.0981186
thorax -8.82482 -1.45531 -3.68655
lowerneck -54.9805 0.392656 2.19696
upperneck 1.02433 -1.39725 2.22167
head 6.7893 -0.35022 0.347963
rclavicle 1.22253e-014 1.05356e-014
rhumerus -32.355 25.3287 -96.7781
rradius 102.094
rwrist -28.3322
rhand -8.60242 -28.4628
rfingers 7.12502
rthumb 17.3291 -57.7102
lclavicle 1.22253e-014 1.05356e-014
lhumerus -36.2946 -19.3829 89.3551
lradius 103.918
lwrist 60.8999
lhand -43.6884 14.5829
lfingers 7.12502
lthumb -16.5212 43.8995
rfemur -149.783 -23.4555 41.3897
rtibia 102.954
rfoot -4.70475 7.68261
rtoes -6.4563
lfemur -139.69 11.1895 -30.1621
ltibia 91.0928
lfoot 1.72 -13.6188
ltoes -14.3587
88
root 3.57444 9.6703 7.30752 49.7709 2.50765 1.98686
lowerback -0.492622 -1.56428 8.30781
upperback -8.58095 -1.73508 0.565496
thorax -9.09844 -1.48112 -3.9006
lowerneck -55.6156 0.691606 2.35698
upperneck 0.948967 -1.13759 2.06024
head 6.78533 -0.251175 0.309717
rclavicle 2.16675e-014 4.77083e-015
rhumerus -32.4851 25.4325 -96.6426
rradius 102.551
rwrist -28.3976
rhand -8.82976 -28.6077
rfingers 7.12502
rthumb 17.1103 -57.8743
lclavicle 2.16675e-014 4.77083e-015
lhumerus -36.3294 -19.482 89.3022
lradius 104.203
lwrist 60.8226
lhand -43.5019 14.4482
lfingers 7.12502
lthumb -16.3417 43.7797
rfemur -150.223 -22.8995 42.9125
rtibia 103.095
rfoot -5.14954 7.52739
rtoes -6.43638
lfemur -140.928 11.4289 -29.1582
ltibia 91.227
lfoot 1.97178 -13.8158
ltoes -14.5541
89
root 3.56677 9.66126 7.35228 50.7736 2.94483 1.47422
lowerback -0.56674 -1.53849 9.04766
upperback -8.76817 -1.64257 0.887121
thorax -9.28603 -1.49057 -3.97102
lowerneck -56.2275 0.981965 2.51069
upperneck 0.912147 -0.888554 1.90169
head 6.79431 -0.156883 0.271408
rclavicle 6.06293e-015 1.35174e-014
rhumerus -32.5898 25.5653 -96.4871
rradius 103.026
rwrist -28.4888
rhand -9.07044 -28.8579
rfingers 7.12502
rthumb 16.8786 -58.1444
lclavicle 6.06293e-015 1.35174e-014
lhumerus -36.3312 -19.5923 89.2389
lradius 104.503
lwrist 60.7733
lhand -43.3686 14.3002
lfingers 7.12502
lthumb -16.2133 43.6422
rfemur -151.003 -22.3206 44.012
rtibia 103.189
rfoot -5.44687 7.45641
rtoes -6.41222
lfemur -142.171 11.5465 -28.7064
ltibia 91.3142
lfoot 2.07711 -13.938
ltoes -14.7479
90
root 3.55972 9.65386 7.40202 51.9518 3.03141 1.27298
lowerback -0.815403 -1.49452 9.31411
upperback -9.00808 -1.57269 1.0853
thorax -9.40882 -1.48113 -3.91141
lowerneck -56.8242 1.26821 2.65973
upperneck 0.912096 -0.646735 1.75315
head 6.81617 -0.0646164 0.236365
rclavicle -4.19436e-014 -3.57812e-015
rhumerus -32.6973 25.7586 -96.3429
rradius 103.471
rwrist -28.7328
rhand -9.59923 -28.7539
rfingers 7.12502
rthumb 16.3695 -58.0831
lclavicle -4.19436e-014 -3.57812e-015
lhumerus -36.3157 -19.7078 89.174
lradius 104.821
lwrist 60.7458
lhand -43.2907 14.1745
lfingers 7.12502
lthumb -16.1383 43.5226
rfemur -152.046 -21.6968 44.7158
rtibia 103.245
rfoot -5.61462 7.4518
rtoes -6.35471
lfemur -143.421 11.5825 -28.7291
ltibia 91.3873
lfoot 2.04869 -13.9941
ltoes -14.9241
91
root 3.55376 9.6493 7.45479 53.1911 2.88211 1.27753
lowerback -1.12755 -1.44393 9.27143
upperback -9.26793 -1.52054 1.19484
thorax -9.50354 -1.4602 -3.77505
lowerneck -57.3885 1.52799 2.78848
upperneck 0.94601 -0.42877 1.62367
head 6.8495 0.0191076 0.207469
rclavicle 3.98563e-014 -1.17283e-014
rhumerus -32.7963 25.9874 -96.1929
rradius 103.892
rwrist -29.0712
rhand -10.3269 -28.4148
rfingers 7.12502
rthumb 15.6689 -57.8004
lclavicle 3.98563e-014 -1.17283e-014
lhumerus -36.2758 -19.8465 89.1077
lradius 105.144
lwrist 60.7412
lhand -43.2772 14.0625
lfingers 7.12502
lthumb -16.1253 43.4117
rfemur -153.19 -21.0829 45.1297
rtibia 103.269
rfoot -5.70734 7.50173
rtoes -6.28044
lfemur -144.604 11.5547 -29.0511
ltibia 91.4578
lfoot 1.91045 -13.9983
ltoes -15.0946
92
root 3.54907 9.64635 7.50898 54.4238 2.60886 1.38758
lowerback -1.44324 -1.39415 9.0731
upperback -9.531 -1.47954 1.25212
thorax -9.59429 -1.43442 -3.60764
lowerneck -57.9196 1.75297 2.88957
upperneck 1.01838 -0.240675 1.52469
head 6.89622 0.0934791 0.189446
rclavicle -1.76918e-014 1.15295e-014
rhumerus -32.8809 26.2015 -96.0236
rradius 104.296
rwrist -29.3503
rhand -10.9662 -28.0125
rfingers 7.12502
rthumb 15.0531 -57.4452
lclavicle -1.76918e-014 1.15295e-014
lhumerus -36.2202 -20.0069 89.0421
lradius 105.475
lwrist 60.7474
lhand -43.3273 14.0128
lfingers 7.12502
lthumb -16.1736 43.3581
rfemur -154.351 -20.5044 45.3782
rtibia 103.278
rfoot -5.76618 7.5922
rtoes -6.17815
lfemur -145.712 11.4841 -29.5186
ltibia 91.5389
lfoot 1.70573 -13.9753
ltoes -15.2503
93
root 3.54516 9.64429 7.56246 55.5635 2.34363 1.48549
lowerback -1.67424 -1.35018 8.88746
upperback -9.7727 -1.4371 1.30345
thorax -9.7129 -1.40878 -3.45193
lowerneck -58.4045 1.94602 2.96858
upperneck 1.11263 -0.0803014 1.4528
head 6.94953 0.158893 0.180484
rclavicle 3.77691e-015 -5.56597e-015
rhumerus -32.9456 26.3931 -95.8349
rradius 104.738
rwrist -29.5582
rhand -11.4717 -28.0353
rfingers 7.12502
rthumb 14.566 -57.5038
lclavicle 3.77691e-015 -5.56597e-015
lhumerus -36.1493 -20.1907 88.9746
lradius 105.814
lwrist 60.7625
lhand -43.4273 14.0341
lfingers 7.12502
lthumb -16.2699 43.3715
rfemur -155.402 -19.9742 45.5984
rtibia 103.284
rfoot -5.84082 7.69649
rtoes -6.07052
lfemur -146.72 11.4203 -29.9513
ltibia 91.6337
lfoot 1.48494 -13.9506
ltoes -15.392
94
root 3.54195 9.64165 7.61552 56.6379 2.07693 1.57765
lowerback -1.85998 -1.31046 8.69989
upperback -9.99617 -1.39619 1.35038
thorax -9.83881 -1.38292 -3.29893
lowerneck -58.8471 2.11635 3.03393
upperneck 1.22314 0.0602835 1.39511
head 7.00742 0.217114 0.175607
rclavicle -1.05356e-014 2.84262e-014
rhumerus -32.9876 26.5534 -95.6178
rradius 105.265
rwrist -29.6398
rhand -11.7727 -28.7823
rfingers 7.12502
rthumb 14.2761 -58.2716
lclavicle -1.05356e-014 2.84262e-014
lhumerus -36.0579 -20.3906 88.9057
lradius 106.158
lwrist 60.7878
lhand -43.5815 14.1013
lfingers 7.12502
lthumb -16.4183 43.4265
rfemur -156.388 -19.4779 45.795
rtibia 103.298
rfoot -5.92328 7.81515
rtoes -5.94445
lfemur -147.67 11.3598 -30.3679
ltibia 91.7503
lfoot 1.25083 -13.926
ltoes -15.531
95
root 3.53933 9.63785 7.66816 57.6552 1.80137 1.66188
lowerback -2.01813 -1.27124 8.50564
upperback -10.1978 -1.35447 1.38974
thorax -9.95678 -1.35484 -3.15031
lowerneck -59.2429 2.27069 3.09543
upperneck 1.3366 0.185482 1.33955
head 7.06464 0.268247 0.16922
rclavicle -5.1684e-015 -1.23246e-014
rhumerus -32.9134 26.5051 -95.2465
rradius 105.698
rwrist -28.9751
rhand -10.4772 -29.6308
rfingers 7.12502
rthumb 15.5241 -59.0277
lclavicle -5.1684e-015 -1.23246e-014
lhumerus -35.9373 -20.6085 88.8294
lradius 106.507
lwrist 60.8219
lhand -43.8019 14.1871
lfingers 7.12502
lthumb -16.6305 43.4946
rfemur -157.322 -19.003 45.9686
rtibia 103.319
rfoot -6.00989 7.94605
rtoes -5.82363
lfemur -148.575 11.309 -30.7762
ltibia 91.893
lfoot 1.00425 -13.8998
ltoes -15.6719
